PathFileType	4	(X/Y/Z)	C:\Users\dbl\Desktop\20210112(1)\20210112\bx_y_0_501.trc
DataRate	CameraRate	NumFrames	NumMarkers	Units	OrigDataRate	OrigDataStartFrame	OrigNumFrames
50.00	50.00	       6	43	mm	50.00	528	       603
Frame#	Time	Top.Head			R.Acromium			L.Acromium			Sternum			R.ASIS			L.ASIS			V.Sacral			R.Thigh.Upper			R.Thigh.Front			R.Thigh.Rear			R.Knee.Lat			R.Knee.Med			R.Shank.Upper			R.Shank.Front			R.Shank.Rear			R.Ankle.Lat			R.Midfoot.Lat			R.Toe.Lat			R.Toe.Tip			R.Toe.Med			R.Ankle.Med			R.Midfoot.Sup			R.Heel			L.Thigh.Upper			L.Thigh.Front			L.Thigh.Rear			L.Knee.Lat			L.Knee.Med			L.Shank.Upper			L.Shank.Front			L.Shank.Rear			L.Ankle.Lat			L.Midfoot.Lat			L.Toe.Lat			L.Toe.Tip			L.Toe.Med			L.Ankle.Med			L.Midfoot.Sup			L.Heel			origin1 front left			origin2 front right			origin 3 back right			origin 4 back leftt			
		X1	Y1	Z1	X2	Y2	Z2	X3	Y3	Z3	X4	Y4	Z4	X5	Y5	Z5	X6	Y6	Z6	X7	Y7	Z7	X8	Y8	Z8	X9	Y9	Z9	X10	Y10	Z10	X11	Y11	Z11	X12	Y12	Z12	X13	Y13	Z13	X14	Y14	Z14	X15	Y15	Z15	X16	Y16	Z16	X17	Y17	Z17	X18	Y18	Z18	X19	Y19	Z19	X20	Y20	Z20	X21	Y21	Z21	X22	Y22	Z22	X23	Y23	Z23	X24	Y24	Z24	X25	Y25	Z25	X26	Y26	Z26	X27	Y27	Z27	X28	Y28	Z28	X29	Y29	Z29	X30	Y30	Z30	X31	Y31	Z31	X32	Y32	Z32	X33	Y33	Z33	X34	Y34	Z34	X35	Y35	Z35	X36	Y36	Z36	X37	Y37	Z37	X38	Y38	Z38	X39	Y39	Z39	X40	Y40	Z40	X41	Y41	Z41	X42	Y42	Z42	X43	Y43	Z43	

528	10.540	-666.27124	131.86215	1849.13623	-677.37109	-55.05071	1552.19812	-695.86267	308.21954	1537.12903				-586.19275	0.92040	1053.08154	-578.28400	225.73013	1071.76294	-784.09467	103.48986	1054.76575	-646.33685	-65.14022	866.02106	-579.52460	4.11575	803.13214	-675.00787	-50.01046	733.46423	-700.61932	-24.50963	613.69403	-685.04590	84.01766	574.70721	-711.77515	-20.66572	567.98932	-663.00812	23.37999	520.09241	-759.08502	-30.82869	490.33716	-766.45245	-4.19030	209.06259	-663.21429	-66.52911	163.54079	-622.13910	-77.29356	159.52194	-558.88690	-37.84632	165.08913	-603.69995	20.34691	165.88783	-716.17993	78.72707	215.79868	-675.69293	55.28022	156.77275	-794.45007	56.11869	175.26869	-633.45087	285.43692	877.81525	-575.62732	220.68694	813.96893	-679.13672	268.43652	709.78284	-722.45502	251.89282	638.87463	-685.81842	146.91011	572.88184	-727.31500	248.18068	575.80011	-673.18573	208.87030	532.24243	-768.48712	255.78940	503.19638	-771.58270	222.14116	205.56851	-667.29944	299.30502	159.80722	-629.75714	306.11987	162.24138	-559.76367	258.80478	165.85591	-594.56299	221.95410	173.41951	-711.14502	152.40396	216.25340	-675.69208	173.79051	156.89255	-796.35547	171.77654	184.42331	-528.05066	304.59903	146.68027	-517.41724	-72.39612	143.08411	-876.10571	-78.59591	141.66753	-882.48889	296.17874	144.72260	
529	10.560	-666.28369	131.97083	1849.10034	-677.65479	-55.00802	1552.19580	-695.80902	308.25354	1537.08032				-586.30127	0.74387	1053.09839	-578.23718	225.65936	1071.73535	-784.08521	103.51540	1054.76343	-646.44879	-65.19283	866.03113	-579.50775	4.04950	803.17841	-675.04968	-50.03113	733.39990	-700.63873	-24.54347	613.69501	-685.08936	84.01970	574.65411	-711.79736	-20.66389	568.00397	-663.01636	23.34697	520.06799	-759.10162	-30.80897	490.30319	-766.45197	-4.18947	209.06842	-663.22577	-66.53478	163.57402	-622.17139	-77.24680	159.51823	-558.87128	-37.83645	165.08034	-603.70026	20.35693	165.87024	-716.13647	78.72649	215.79282	-675.63184	55.26986	156.75401	-794.45947	56.08689	175.33060	-633.35602	285.37949	877.85022	-575.57123	220.53682	813.90802	-678.98804	268.30563	709.75757	-722.38879	251.85136	638.86835	-685.88446	146.86758	572.89417	-727.30414	248.17314	575.79572	-673.18414	208.84714	532.26379	-768.46338	255.74738	503.17752	-771.57343	222.13205	205.54388	-667.32605	299.29279	159.82957	-629.77893	306.14700	162.22919	-559.76227	258.82501	165.87703	-594.55835	221.93770	173.38324	-711.12250	152.36629	216.29155	-675.68024	173.74911	156.92061	-796.33911	171.79543	184.43829	-528.07245	304.57687	146.67798	-517.45746	-72.47354	143.02896	-876.09259	-78.57262	141.65686	-882.50128	296.17197	144.70717	
530	10.580	-666.28253	132.08554	1849.06909	-677.92297	-54.99118	1552.20483	-695.77960	308.30017	1537.02368				-586.41254	0.58473	1053.12878	-578.19635	225.59334	1071.74500	-784.07910	103.54668	1054.75586	-646.52588	-65.28046	866.02673	-579.47858	3.96704	803.22406	-675.06427	-50.04688	733.36133	-700.68268	-24.54187	613.67877	-685.12018	84.00885	574.62793	-711.81195	-20.68073	567.99615	-663.00092	23.30058	520.03040	-759.07990	-30.80600	490.29431	-766.44342	-4.19262	209.09161	-663.23303	-66.54880	163.62144	-622.19757	-77.19835	159.51129	-558.84735	-37.84279	165.08606	-603.67883	20.36986	165.86732	-716.13403	78.74525	215.76814	-675.56934	55.27782	156.73689	-794.47485	56.07301	175.38185	-633.25146	285.31580	877.90118	-575.48224	220.44556	813.89551	-678.79138	268.14435	709.65521	-722.29156	251.79721	638.85132	-685.93878	146.83321	572.90430	-727.29675	248.16664	575.81018	-673.17694	208.82477	532.26654	-768.43689	255.71136	503.17010	-771.57123	222.13411	205.50146	-667.30865	299.25888	159.84444	-629.81250	306.14896	162.22058	-559.75592	258.83908	165.87885	-594.54950	221.89819	173.33081	-711.09204	152.32858	216.33482	-675.66901	173.71246	156.95555	-796.31970	171.81744	184.42923	-528.07697	304.56866	146.72565	-517.48407	-72.53043	142.98375	-876.07990	-78.54625	141.64827	-882.51318	296.16406	144.69623	
531	10.600	-666.28351	132.18886	1849.05164	-678.14862	-54.99673	1552.20313	-695.76013	308.37012	1536.94482				-586.53082	0.45856	1053.15369	-578.17017	225.54353	1071.77625	-784.07495	103.56631	1054.73474	-646.56824	-65.42119	866.03339	-579.46167	3.86810	803.24805	-675.07269	-50.05587	733.33649	-700.73328	-24.51322	613.63788	-685.12006	83.98297	574.65112	-711.83215	-20.72774	567.98566	-662.96094	23.25480	520.00653	-759.05859	-30.81945	490.31180	-766.44202	-4.18730	209.11076	-663.22894	-66.55538	163.65070	-622.19952	-77.17290	159.49625	-558.83264	-37.85517	165.08658	-603.66278	20.37646	165.87022	-716.14545	78.76582	215.74203	-675.53320	55.29668	156.73663	-794.49268	56.08147	175.39899	-633.12897	285.25449	877.93475	-575.38190	220.39037	813.90900	-678.59821	267.99936	709.51746	-722.17767	251.73613	638.83197	-685.92914	146.83524	572.90118	-727.28076	248.15553	575.84479	-673.15015	208.81183	532.24530	-768.41150	255.69666	503.17581	-771.57806	222.13451	205.47380	-667.25775	299.21262	159.85516	-629.84058	306.12036	162.21657	-559.74371	258.84888	165.85593	-594.54370	221.85359	173.28551	-711.07886	152.32220	216.34694	-675.66870	173.70058	156.96799	-796.31696	171.83084	184.41316	-528.06036	304.55820	146.78845	-517.47968	-72.57193	142.99722	-876.07062	-78.52985	141.63931	-882.53082	296.15030	144.68011	
532	10.620	-666.30811	132.27136	1849.04285	-678.33704	-55.00623	1552.16809	-695.74231	308.46011	1536.83862				-586.64362	0.35705	1053.16492	-578.15778	225.51123	1071.79224	-784.07507	103.56803	1054.70581	-646.59851	-65.58839	866.06689	-579.46082	3.74685	803.24756	-675.08832	-50.05932	733.30957	-700.75989	-24.49367	613.61230	-685.09082	83.93919	574.72357	-711.85620	-20.80123	568.00293	-662.91943	23.22149	520.00671	-759.07513	-30.83592	490.33514	-766.45764	-4.16996	209.10095	-663.21149	-66.54295	163.63664	-622.17780	-77.16853	159.47334	-558.83557	-37.86154	165.07326	-603.66357	20.38324	165.86742	-716.14227	78.77016	215.73402	-675.53455	55.30977	156.74657	-794.50140	56.07854	175.39967	-632.97894	285.19870	877.93683	-575.29230	220.32933	813.91595	-678.45776	267.90717	709.42242	-722.06226	251.67957	638.81891	-685.85248	146.86325	572.88092	-727.24316	248.13417	575.88660	-673.10999	208.80844	532.22394	-768.39337	255.70921	503.19482	-771.58838	222.12108	205.47719	-667.21063	299.17545	159.86307	-629.83734	306.07855	162.22214	-559.71735	258.86371	165.81520	-594.55255	221.82605	173.27412	-711.09924	152.35394	216.31262	-675.68799	173.72577	156.93747	-796.32031	171.83508	184.40173	-528.03729	304.53253	146.82727	-517.45850	-72.60388	143.03374	-876.05792	-78.52494	141.61438	-882.55621	296.14728	144.66756	
533	10.640	-666.36493	132.34630	1849.02771	-678.51331	-55.00681	1552.09167	-695.72559	308.55701	1536.72278				-586.72705	0.25079	1053.16785	-578.14886	225.48802	1071.76831	-784.08026	103.56218	1054.67908	-646.62787	-65.71553	866.09875	-579.46423	3.60299	803.22791	-675.11316	-50.06125	733.27258	-700.75177	-24.50551	613.62799	-685.05554	83.89131	574.80658	-711.87347	-20.87412	568.04547	-662.89734	23.20140	520.03192	-759.13776	-30.83296	490.33429	-766.48053	-4.15179	209.06659	-663.18677	-66.52648	163.59247	-622.14771	-77.17631	159.45245	-558.84332	-37.85592	165.05717	-603.66663	20.39558	165.86310	-716.12781	78.75972	215.74437	-675.56195	55.30774	156.74854	-794.49066	56.04554	175.40019	-632.79034	285.13693	877.92401	-575.21082	220.22862	813.89886	-678.38184	267.86679	709.41797	-721.96735	251.65764	638.82697	-685.76624	146.87137	572.85120	-727.17822	248.09647	575.91821	-673.07660	208.80574	532.23077	-768.37744	255.74057	503.21597	-771.58984	222.09436	205.50285	-667.19293	299.15808	159.86707	-629.79761	306.04926	162.23485	-559.68542	258.88129	165.77548	-594.57452	221.82233	173.29437	-711.13763	152.39626	216.25941	-675.72009	173.77039	156.88216	-796.31219	171.84198	184.39499	-528.02057	304.50085	146.82050	-517.44952	-72.61380	143.03899	-876.04584	-78.53436	141.57986	-882.57794	296.17230	144.67520	
